<svg xmlns="http://www.w3.org/2000/svg" width="40" height="40" viewBox="0 0 24 24" fill="currentColor">
  <path fill="white" d="M7 2C4.243 2 2 4.243 2 7v10c0 2.757 2.243 5 5 5h10
  c2.757 0 5-2.243 5-5V7c0-2.757-2.243-5-5-5H7zm10 2
  c1.654 0 3 1.346 3 3v10c0 1.654-1.346 3-3 3H7
  c-1.654 0-3-1.346-3-3V7c0-1.654 1.346-3 3-3h10z"/>

  <path fill="white" d="M12 7c-2.757 0-5 2.243-5 5s2.243 5 5 5
  5-2.243 5-5-2.243-5-5-5zm0 8
  c-1.654 0-3-1.346-3-3s1.346-3 3-3
  3 1.346 3 3-1.346 3-3 3z"/>

  <circle  fill="white" cx="17.5" cy="6.5" r="1.5"/>
</svg>
