<svg xmlns="http://www.w3.org/2000/svg" width="40" height="40" viewBox="0 0 24 24" fill="currentColor">
  <path d="M23.954 4.569c-.885.389-1.83.654-2.825.775 
  1.014-.611 1.794-1.574 2.163-2.724
  -.951.564-2.005.974-3.127 1.195
  -.897-.957-2.178-1.555-3.594-1.555
  -2.717 0-4.92 2.204-4.92 4.917
  0 .39.045.765.127 1.124
  -4.087-.205-7.713-2.164-10.141-5.144
  -.422.722-.666 1.561-.666 2.475
  0 1.708.87 3.213 2.188 4.096
  -.807-.026-1.566-.247-2.228-.616
  0 .021 0 .042 0 .063
  0 2.385 1.693 4.374 3.946 4.827
  -.413.111-.849.171-1.296.171
  -.314 0-.615-.03-.916-.086
  .631 1.953 2.445 3.377 4.604 3.419
  -1.68 1.319-3.809 2.105-6.102 2.105
  -.39 0-.779-.023-1.17-.067
  2.189 1.394 4.768 2.209 7.557 2.209
  9.054 0 14-7.496 14-13.986
  0-.21 0-.423-.016-.637
  .961-.689 1.8-1.56 2.46-2.548z"/>
</svg>
