<svg xmlns="http://www.w3.org/2000/svg" width="40" height="40" viewBox="0 0 24 24" fill="currentColor">
  <path d="M23.498 6.186a2.997 2.997 0 0 0-2.112-2.117
  C19.505 3.545 12 3.545 12 3.545s-7.505 0-9.386.524
  A2.997 2.997 0 0 0 .502 6.186
  C0 8.07 0 12 0 12s0 3.93.502 5.814
  a2.997 2.997 0 0 0 2.112 2.117
  C4.495 20.455 12 20.455 12 20.455
  s7.505 0 9.386-.524
  a2.997 2.997 0 0 0 2.112-2.117
  C24 15.93 24 12 24 12s0-3.93-.502-5.814z"/>

  <path d="M9.545 15.568V8.432L15.818 12z" fill="#fff"/>
</svg>
